<?xml version="1.0" encoding="utf-8"?>
<!-- Generator: Adobe Illustrator 25.4.1, SVG Export Plug-In . SVG Version: 6.00 Build 0)  -->
<svg version="1.1" id="Layer_1" xmlns="http://www.w3.org/2000/svg" xmlns:xlink="http://www.w3.org/1999/xlink" x="0px" y="0px"
	 viewBox="0 0 1000 1000" style="enable-background:new 0 0 1000 1000;" xml:space="preserve">
<style type="text/css">
	.st0{fill:#FE0003;}
	.st1{fill:#FDCC04;}
	.st2{fill:#FF00FE;}
	.st3{fill:#50FC94;}
	.st4{fill:#CB00FF;}
	.st5{fill:#262626;}
</style>
<g>
	<g>
		<path class="st0" d="M856.42,446.21c-24.07,0-43.58-19.51-43.58-43.58c0-13.7,6.33-25.92,16.22-33.91
			c-1.43-0.1-2.87-0.16-4.33-0.16c-35.45,0-64.19,28.74-64.19,64.19c0,1.46,0.07,2.9,0.16,4.33c7.99-9.89,20.21-16.22,33.91-16.22
			c24.07,0,43.58,19.51,43.58,43.58c0,12.9-5.61,24.48-14.51,32.46c0.35,0.01,0.69,0.03,1.04,0.03c35.45,0,64.19-28.74,64.19-64.19
			c0-0.35-0.02-0.69-0.03-1.04C880.9,440.61,869.31,446.21,856.42,446.21z"/>
		<path class="st1" d="M888.88,431.7c6.91-7.71,11.12-17.9,11.12-29.07c0-24.07-19.51-43.58-43.58-43.58
			c-10.37,0-19.88,3.63-27.37,9.67C862.13,370.92,888.34,398.18,888.88,431.7z"/>
		<path class="st2" d="M812.83,402.63c0,24.07,19.51,43.58,43.58,43.58c12.9,0,24.48-5.61,32.46-14.51
			c-0.54-33.52-26.74-60.78-59.83-62.99C819.16,376.7,812.83,388.92,812.83,402.63z"/>
		<path class="st3" d="M760.69,437.07c-6.04,7.48-9.67,17-9.67,27.37c0,24.07,19.51,43.58,43.58,43.58
			c11.17,0,21.36-4.21,29.07-11.12C790.16,496.37,762.9,470.16,760.69,437.07z"/>
		<path class="st4" d="M838.19,464.44c0-24.07-19.51-43.58-43.58-43.58c-13.7,0-25.92,6.33-33.91,16.22
			c2.21,33.08,29.47,59.29,62.99,59.83C832.58,488.92,838.19,477.34,838.19,464.44z"/>
	</g>
	<path class="st5" d="M118.88,640.93c-13.94,0.29-21.95-12.59-17.44-25.19c5.21-15.03,29.67-15.03,34.88,0
		C140.83,628.34,132.82,641.22,118.88,640.93z M118.88,637.02c10.95,0.22,15.47-10.56,12.53-19.88c-1.71-5.49-6.7-8.86-12.53-8.74
		c-5.83-0.12-10.82,3.25-12.53,8.74C103.4,626.43,107.96,637.27,118.88,637.02z M164.57,640.93c-13.94,0.29-21.95-12.59-17.44-25.19
		c5.21-15.03,29.67-15.03,34.88,0C186.52,628.34,178.51,641.22,164.57,640.93z M164.57,637.02c10.95,0.22,15.47-10.56,12.53-19.88
		c-1.71-5.49-6.7-8.86-12.53-8.74c-5.83-0.12-10.82,3.25-12.53,8.74C149.09,626.43,153.65,637.27,164.57,637.02z M200.47,639.66
		h-5.29v-35.17c6.07,0.19,15.18-0.96,20.4,2.51c2.67,1.66,4.33,4.21,4.31,7.42c-0.04,5.5-4.34,8.83-9.71,10.25l13.5,15h-6.49
		l-12.47-14.15c-1.25,0.05-2.99,0.06-4.25,0.05V639.66z M214.6,614.52c0.02-2.12-1.08-3.75-2.87-4.73c-3.1-1.76-7.76-1.36-11.26-1.4
		v13.26c2.25,0.01,5.07,0.05,7.15-0.42C211.19,620.55,214.67,618.46,214.6,614.52z M233.49,604.49h21.32v3.96h-16.03v11.25h15.34
		v3.96h-15.34v12.04h16.2v3.96h-21.49V604.49z M265.96,604.49c5.41,0.15,14.69-0.59,19.59,1.32c7.38,2.27,12.99,8.41,12.87,16.27
		c0.12,7.85-5.49,14-12.87,16.27c-4.87,1.92-14.23,1.19-19.59,1.32V604.49z M276.59,635.75c6.08,0.02,12.45-2.3,15.26-7.87
		c2.62-5.14,1.22-12.45-3.53-15.9c-4.8-3.85-11.13-3.69-17.07-3.59v27.36H276.59z M325.21,640.93
		c-13.94,0.29-21.95-12.59-17.44-25.19c5.21-15.03,29.67-15.03,34.88,0C347.16,628.34,339.15,641.22,325.21,640.93z M325.21,637.02
		c10.95,0.22,15.47-10.56,12.53-19.88c-1.71-5.49-6.7-8.86-12.53-8.74c-5.83-0.12-10.82,3.25-12.53,8.74
		C309.73,626.43,314.29,637.27,325.21,637.02z M370.9,640.93c-13.94,0.29-21.95-12.59-17.44-25.19c5.21-15.03,29.67-15.03,34.88,0
		C392.85,628.34,384.84,641.22,370.9,640.93z M370.9,637.02c10.95,0.22,15.47-10.56,12.53-19.88c-1.71-5.49-6.7-8.86-12.53-8.74
		c-5.83-0.12-10.82,3.25-12.53,8.74C355.42,626.43,359.98,637.27,370.9,637.02z M449.2,639.66v-15.79h-19.59v15.79h-5.29v-35.17
		h5.29v15.26h19.59v-15.26h5.29v35.17H449.2z M491.33,604.49h5.29v22.71c0,1.83-0.33,3.55-0.98,5.15
		c-2.27,5.58-8.01,8.02-14.02,7.95c-6,0.07-11.76-2.37-14.02-7.95c-0.65-1.6-0.98-3.32-0.98-5.15v-22.71h5.29v22.92
		c0.03,5.69,3.76,9.02,9.71,8.92c5.95,0.1,9.68-3.24,9.71-8.92C491.33,627.41,491.33,604.49,491.33,604.49z M533.22,604.49v3.96
		h-11.26v31.21h-5.29v-31.21h-11.26v-3.96H533.22z M557.28,604.49c3.06-0.01,7.4,0.57,10.11,1.64l-0.86,3.75
		c-10.9-3.63-24.11-0.75-23.85,12.83c-0.26,13.58,12.95,16.47,23.85,12.83l0.86,3.75c-7.88,2.72-18.62,2.43-24.77-3.54
		c-5.32-4.95-6.54-13.72-3.88-20.33C541.7,607.97,549.29,604.38,557.28,604.49z M605.79,639.66v-15.79h-19.59v15.79h-5.29v-35.17
		h5.29v15.26h19.59v-15.26h5.29v35.17H605.79z M625.84,639.66h-5.29v-35.17h5.29V639.66z M660.12,631.16
		c0.03,3.01-1.54,5.43-3.94,7.13c-5.79,3.89-14.23,3.05-20.48,0.53l1.03-3.86c4.55,1.89,11.56,3.24,15.86,0.61
		c2.34-1.3,2.93-4.64,1.64-6.81c-1-1.62-2.67-2.67-4.48-3.51c-5.17-2.48-13.17-4.54-13.24-11.51c0.12-10.85,14.94-10.59,22.12-7.13
		l-0.98,3.85c-4.41-2.37-16.11-4.05-15.92,2.9c-0.06,2.39,1.44,3.78,3.53,4.83C650.78,621.15,659.98,623.4,660.12,631.16z
		 M689.84,640.93c-13.94,0.29-21.95-12.59-17.44-25.19c5.21-15.03,29.67-15.03,34.88,0C711.78,628.34,703.78,641.22,689.84,640.93z
		 M689.84,637.02c10.95,0.22,15.47-10.56,12.53-19.88c-1.71-5.49-6.7-8.86-12.53-8.74c-5.83-0.12-10.82,3.25-12.53,8.74
		C674.35,626.43,678.91,637.27,689.84,637.02z M743.77,639.66l-21.43-27.62v27.62h-5.06v-35.17h5.06l21.43,27.62v-27.62h5.06v35.17
		H743.77z"/>
	<path class="st5" d="M239.88,531.4c0,0.43-0.02,52.7-0.02,52.7h-26.94v-52.3c-0.02-12.69-10.29-23.38-22.96-23.38
		s-22.98,10.68-23,23.38v52.3h-26.94l0.02-52.7c0-27.58,22.35-49.92,49.92-49.92C217.54,481.48,239.88,503.82,239.88,531.4z
		 M476.01,534.17c0,28.45-23.06,51.51-51.51,51.51c-28.45,0-51.51-23.06-51.51-51.51c0-28.45,23.06-51.51,51.51-51.51
		C452.95,482.67,476.01,505.73,476.01,534.17z M452.24,534.17c0-15.32-12.42-27.74-27.74-27.74c-15.32,0-27.74,12.42-27.74,27.74
		c0,15.32,12.42,27.74,27.74,27.74C439.82,561.91,452.24,549.49,452.24,534.17z M358.73,455.33V584.1h-27.34v-6.26
		c-7.92,4.96-17.29,7.85-27.34,7.85c-28.45,0-51.51-23.06-51.51-51.51c0-28.45,23.06-51.51,51.51-51.51
		c10.05,0,19.41,2.88,27.34,7.85v-35.18H358.73z M276.32,534.17c0.56,33.83,49.04,37.63,55.07,4.64
		C336.43,499.54,278.08,494.35,276.32,534.17z M537.83,515.95h26.17c0.78-11.09-8.73-33.28-35.55-33.28
		c-31.83,0-39.75,17.43-39.75,31.7c0,33.28,50.72,25.36,50.72,38.04c0,14.26-25.36,14.26-25.36,0h-26.94c0,0,0.71,33.28,40.83,33.28
		c22.56,0,38.41-12.68,38.41-33.28c0-33.28-50.72-22.19-50.72-38.04C515.64,503.27,537.83,503.27,537.83,515.95z M128.92,485.44H100
		v98.26h28.92V485.44z M114.66,444.63c-7.88,0-14.26,6.39-14.26,14.26s6.39,14.26,14.26,14.26s14.26-6.39,14.26-14.26
		S122.54,444.63,114.66,444.63z M746.08,560.32c-14.35,0-25.99-11.64-25.99-25.99v-26.31h26.94v-23.77h-26.94v-30.51h-27.34v81.87
		c0,27.66,22.42,50.08,50.08,50.08h5.79v-25.36H746.08z M677.3,532.59v49.92h-23.77V576c-8,5.12-17.51,8.1-27.74,8.1
		c-28.45,0-51.51-23.06-51.51-51.51c0-28.45,23.06-51.51,51.51-51.51c10.22,0,19.73,2.98,27.74,8.1
		C667.82,498.32,677.3,514.35,677.3,532.59z M653.52,532.59c0-15.31-12.43-27.74-27.74-27.74c-15.31,0-27.74,12.43-27.74,27.74
		c0,15.31,12.43,27.74,27.74,27.74C641.1,560.32,653.52,547.9,653.52,532.59z"/>
</g>
</svg>
